<svg width="67" height="8" viewBox="0 0 67 8" fill="none" xmlns="http://www.w3.org/2000/svg">
<path d="M6.55575 2.97603H5.22763C5.18975 2.75823 5.11991 2.56528 5.01811 2.39719C4.91631 2.22674 4.78965 2.08233 4.63814 1.96396C4.48662 1.84558 4.3138 1.75681 4.11967 1.69762C3.92791 1.63607 3.72076 1.60529 3.49822 1.60529C3.10286 1.60529 2.75249 1.70472 2.44709 1.90359C2.14169 2.10008 1.90258 2.38891 1.72976 2.77006C1.55694 3.14885 1.47053 3.61168 1.47053 4.15856C1.47053 4.7149 1.55694 5.18365 1.72976 5.56481C1.90495 5.9436 2.14406 6.23005 2.44709 6.42418C2.75249 6.61594 3.10168 6.71183 3.49467 6.71183C3.71248 6.71183 3.91607 6.68342 4.10547 6.6266C4.29723 6.56741 4.46887 6.481 4.62038 6.36737C4.77427 6.25373 4.90329 6.11405 5.00746 5.94833C5.11399 5.78261 5.18738 5.59322 5.22763 5.38015L6.55575 5.38725C6.50604 5.7329 6.39832 6.05723 6.2326 6.36026C6.06925 6.66329 5.855 6.93081 5.58984 7.16282C5.32469 7.39246 5.01456 7.57238 4.65945 7.70259C4.30433 7.83043 3.91016 7.89435 3.47692 7.89435C2.83771 7.89435 2.26716 7.74639 1.76527 7.45046C1.26338 7.15453 0.868016 6.72721 0.57919 6.1685C0.290365 5.60979 0.145952 4.93981 0.145952 4.15856C0.145952 3.37494 0.291548 2.70496 0.582741 2.14862C0.873935 1.5899 1.27048 1.16258 1.77237 0.866654C2.27427 0.570726 2.84245 0.422763 3.47692 0.422763C3.88175 0.422763 4.25817 0.479581 4.60618 0.593217C4.95419 0.706854 5.26432 0.873757 5.53658 1.09393C5.80883 1.31173 6.03255 1.57925 6.20774 1.89648C6.3853 2.21135 6.5013 2.5712 6.55575 2.97603ZM7.76225 7.79492V0.522194H10.4895C11.0482 0.522194 11.517 0.619259 11.8958 0.813388C12.2769 1.00752 12.5646 1.27977 12.7587 1.63015C12.9552 1.97816 13.0534 2.38417 13.0534 2.84819C13.0534 3.31457 12.954 3.7194 12.7551 4.06268C12.5587 4.40359 12.2686 4.66755 11.8851 4.85458C11.5016 5.03924 11.0305 5.13157 10.4718 5.13157H8.5293V4.03782H10.2942C10.6209 4.03782 10.8884 3.99284 11.0968 3.90288C11.3051 3.81055 11.459 3.67679 11.5584 3.5016C11.6602 3.32404 11.7111 3.10624 11.7111 2.84819C11.7111 2.59014 11.6602 2.36997 11.5584 2.18768C11.4566 2.00302 11.3016 1.86334 11.0932 1.76864C10.8849 1.67158 10.6162 1.62305 10.2871 1.62305H9.07972V7.79492H7.76225ZM11.5194 4.49947L13.3198 7.79492H11.8496L10.0811 4.49947H11.5194ZM14.2662 7.79492V0.522194H18.9963V1.6266H15.5836V3.60103H18.7512V4.70543H15.5836V6.69052H19.0247V7.79492H14.2662ZM22.8049 7.79492H20.3404V0.522194H22.8546C23.5766 0.522194 24.1969 0.667791 24.7154 0.958984C25.2362 1.24781 25.6363 1.66329 25.9157 2.20543C26.195 2.74757 26.3347 3.39625 26.3347 4.15146C26.3347 4.90903 26.1938 5.56007 25.9121 6.10458C25.6328 6.64909 25.2291 7.06694 24.7012 7.35813C24.1756 7.64933 23.5435 7.79492 22.8049 7.79492ZM21.6578 6.65501H22.7409C23.2476 6.65501 23.6702 6.56268 24.0087 6.37802C24.3472 6.19099 24.6017 5.91282 24.7722 5.5435C24.9426 5.17182 25.0279 4.7078 25.0279 4.15146C25.0279 3.59511 24.9426 3.13346 24.7722 2.76651C24.6017 2.39719 24.3496 2.12139 24.0158 1.9391C23.6844 1.75444 23.2724 1.66211 22.78 1.66211H21.6578V6.65501ZM28.9039 0.522194V7.79492H27.5865V0.522194H28.9039ZM30.011 1.6266V0.522194H35.8136V1.6266H33.5657V7.79492H32.2589V1.6266H30.011ZM45.6378 2.97603H44.3097C44.2718 2.75823 44.2019 2.56528 44.1001 2.39719C43.9983 2.22674 43.8717 2.08233 43.7202 1.96396C43.5687 1.84558 43.3958 1.75681 43.2017 1.69762C43.0099 1.63607 42.8028 1.60529 42.5803 1.60529C42.1849 1.60529 41.8345 1.70472 41.5291 1.90359C41.2237 2.10008 40.9846 2.38891 40.8118 2.77006C40.639 3.14885 40.5526 3.61168 40.5526 4.15856C40.5526 4.7149 40.639 5.18365 40.8118 5.56481C40.987 5.9436 41.2261 6.23005 41.5291 6.42418C41.8345 6.61594 42.1837 6.71183 42.5767 6.71183C42.7945 6.71183 42.9981 6.68342 43.1875 6.6266C43.3793 6.56741 43.5509 6.481 43.7024 6.36737C43.8563 6.25373 43.9853 6.11405 44.0895 5.94833C44.196 5.78261 44.2694 5.59322 44.3097 5.38015L45.6378 5.38725C45.5881 5.7329 45.4804 6.05723 45.3146 6.36026C45.1513 6.66329 44.937 6.93081 44.6719 7.16282C44.4067 7.39246 44.0966 7.57238 43.7415 7.70259C43.3864 7.83043 42.9922 7.89435 42.5589 7.89435C41.9197 7.89435 41.3492 7.74639 40.8473 7.45046C40.3454 7.15453 39.95 6.72721 39.6612 6.1685C39.3724 5.60979 39.228 4.93981 39.228 4.15856C39.228 3.37494 39.3736 2.70496 39.6648 2.14862C39.956 1.5899 40.3525 1.16258 40.8544 0.866654C41.3563 0.570726 41.9245 0.422763 42.5589 0.422763C42.9638 0.422763 43.3402 0.479581 43.6882 0.593217C44.0362 0.706854 44.3464 0.873757 44.6186 1.09393C44.8909 1.31173 45.1146 1.57925 45.2898 1.89648C45.4673 2.21135 45.5833 2.5712 45.6378 2.97603ZM47.6903 7.79492H46.2841L48.8445 0.522194H50.4709L53.0348 7.79492H51.6286L49.6861 2.01367H49.6293L47.6903 7.79492ZM47.7365 4.94336H51.5717V6.0016H47.7365V4.94336ZM53.9927 7.79492V0.522194H56.72C57.2787 0.522194 57.7475 0.619259 58.1262 0.813388C58.5074 1.00752 58.795 1.27977 58.9892 1.63015C59.1857 1.97816 59.2839 2.38417 59.2839 2.84819C59.2839 3.31457 59.1845 3.7194 58.9856 4.06268C58.7891 4.40359 58.4991 4.66755 58.1156 4.85458C57.7321 5.03924 57.2609 5.13157 56.7022 5.13157H54.7598V4.03782H56.5247C56.8514 4.03782 57.1189 3.99284 57.3272 3.90288C57.5356 3.81055 57.6895 3.67679 57.7889 3.5016C57.8907 3.32404 57.9416 3.10624 57.9416 2.84819C57.9416 2.59014 57.8907 2.36997 57.7889 2.18768C57.6871 2.00302 57.532 1.86334 57.3237 1.76864C57.1154 1.67158 56.8467 1.62305 56.5176 1.62305H55.3102V7.79492H53.9927ZM57.7498 4.49947L59.5502 7.79492H58.0801L56.3116 4.49947H57.7498ZM62.9611 7.79492H60.4966V0.522194H63.0108C63.7329 0.522194 64.3532 0.667791 64.8716 0.958984C65.3925 1.24781 65.7926 1.66329 66.0719 2.20543C66.3513 2.74757 66.4909 3.39625 66.4909 4.15146C66.4909 4.90903 66.3501 5.56007 66.0684 6.10458C65.789 6.64909 65.3854 7.06694 64.8574 7.35813C64.3319 7.64933 63.6998 7.79492 62.9611 7.79492ZM61.8141 6.65501H62.8972C63.4038 6.65501 63.8264 6.56268 64.165 6.37802C64.5035 6.19099 64.758 5.91282 64.9284 5.5435C65.0989 5.17182 65.1841 4.7078 65.1841 4.15146C65.1841 3.59511 65.0989 3.13346 64.9284 2.76651C64.758 2.39719 64.5059 2.12139 64.1721 1.9391C63.8406 1.75444 63.4287 1.66211 62.9363 1.66211H61.8141V6.65501Z" fill="#27346A"/>
</svg>
