<svg width="49" height="49" viewBox="0 0 49 49" fill="none" xmlns="http://www.w3.org/2000/svg">
  <circle cx="24.5293" cy="24.9871" r="24" fill="#4B6BA4" />
  <path
    d="M32.7393 21.8071L26.5293 15.7671C26.0033 15.2669 25.3052 14.988 24.5793 14.988C23.8534 14.988 23.1553 15.2669 22.6293 15.7671L16.4193 21.7671C16.1434 22.008 15.9215 22.3044 15.7681 22.637C15.6147 22.9696 15.5333 23.3308 15.5293 23.6971V32.2771C15.5398 33.0047 15.8383 33.6985 16.3594 34.2064C16.8805 34.7144 17.5816 34.9951 18.3093 34.9871H30.7493C31.4769 34.9951 32.1781 34.7144 32.6992 34.2064C33.2203 33.6985 33.5188 33.0047 33.5293 32.2771V23.6971C33.5285 23.3456 33.4583 22.9976 33.3228 22.6733C33.1872 22.349 32.9889 22.0546 32.7393 21.8071ZM23.9693 17.2071C24.1223 17.0672 24.322 16.9897 24.5293 16.9897C24.7366 16.9897 24.9363 17.0672 25.0893 17.2071L30.5293 22.4871L25.0593 27.7671C24.9063 27.9069 24.7066 27.9845 24.4993 27.9845C24.292 27.9845 24.0923 27.9069 23.9393 27.7671L18.5293 22.4871L23.9693 17.2071ZM31.5293 32.2771C31.5164 32.4734 31.428 32.657 31.2825 32.7894C31.1371 32.9218 30.9459 32.9927 30.7493 32.9871H18.3093C18.1127 32.9927 17.9215 32.9218 17.7761 32.7894C17.6306 32.657 17.5422 32.4734 17.5293 32.2771V24.3371L21.5793 28.2371L19.9193 29.8371C19.733 30.0244 19.6285 30.2779 19.6285 30.5421C19.6285 30.8063 19.733 31.0597 19.9193 31.2471C20.0122 31.3446 20.1239 31.4223 20.2477 31.4756C20.3714 31.5288 20.5046 31.5566 20.6393 31.5571C20.8968 31.5561 21.1439 31.4558 21.3293 31.2771L23.0993 29.5771C23.5389 29.8457 24.0441 29.9879 24.5593 29.9879C25.0745 29.9879 25.5797 29.8457 26.0193 29.5771L27.7893 31.2771C27.9747 31.4558 28.2218 31.5561 28.4793 31.5571C28.614 31.5566 28.7472 31.5288 28.8709 31.4756C28.9947 31.4223 29.1064 31.3446 29.1993 31.2471C29.3855 31.0597 29.4901 30.8063 29.4901 30.5421C29.4901 30.2779 29.3855 30.0244 29.1993 29.8371L27.5293 28.2371L31.5293 24.3371V32.2771Z"
    fill="#F0FDF4" />
</svg>