<svg width="49" height="49" viewBox="0 0 49 49" fill="none" xmlns="http://www.w3.org/2000/svg">
  <circle cx="24.3965" cy="24.1663" r="24" fill="#4B6BA4" />
  <path
    d="M23.6865 26.8262C23.5017 27.0125 23.3976 27.2639 23.3965 27.5262C23.3967 27.6603 23.424 27.7929 23.4765 27.9162C23.5668 28.1281 23.7274 28.3024 23.9313 28.4095C24.1352 28.5167 24.3698 28.5501 24.5956 28.5043C24.8213 28.4584 25.0242 28.3361 25.1702 28.1579C25.3161 27.9797 25.396 27.7565 25.3965 27.5262C25.3954 27.2639 25.2912 27.0125 25.1065 26.8262C25.0135 26.7325 24.9029 26.6581 24.7811 26.6073C24.6592 26.5566 24.5285 26.5304 24.3965 26.5304C24.2645 26.5304 24.1338 26.5566 24.0119 26.6073C23.8901 26.6581 23.7795 26.7325 23.6865 26.8262ZM32.0265 15.8262C31.9103 15.7322 31.7746 15.6655 31.6292 15.6309C31.4838 15.5963 31.3326 15.5947 31.1865 15.6262C30.1179 15.8502 29.0148 15.853 27.9451 15.6346C26.8754 15.4162 25.8617 14.9811 24.9665 14.3562C24.7991 14.2401 24.6002 14.1779 24.3965 14.1779C24.1928 14.1779 23.9939 14.2401 23.8265 14.3562C22.9305 14.9794 21.9165 15.4127 20.8468 15.6294C19.7771 15.8461 18.6744 15.8416 17.6065 15.6162C17.4604 15.5847 17.3092 15.5863 17.1638 15.6209C17.0184 15.6555 16.8827 15.7222 16.7665 15.8162C16.6505 15.9103 16.557 16.0292 16.493 16.1642C16.429 16.2992 16.396 16.4468 16.3965 16.5962V24.0462C16.3956 25.48 16.7373 26.8932 17.393 28.1682C18.0488 29.4432 18.9997 30.543 20.1665 31.3762L23.8165 33.9762C23.9859 34.0968 24.1886 34.1616 24.3965 34.1616C24.6044 34.1616 24.8071 34.0968 24.9765 33.9762L28.6265 31.3762C29.7933 30.543 30.7442 29.4432 31.4 28.1682C32.0557 26.8932 32.3974 25.48 32.3965 24.0462V16.5962C32.397 16.4468 32.364 16.2992 32.3 16.1642C32.236 16.0292 32.1425 15.9103 32.0265 15.8162V15.8262ZM30.3965 24.0462C30.3973 25.161 30.1318 26.2598 29.6221 27.2512C29.1125 28.2427 28.3735 29.0981 27.4665 29.7462L24.3965 31.9362L21.3265 29.7462C20.4195 29.0981 19.6805 28.2427 19.1708 27.2512C18.6612 26.2598 18.3957 25.161 18.3965 24.0462V17.7462C20.4929 17.9256 22.5925 17.4392 24.3965 16.3562C26.2004 17.4392 28.3001 17.9256 30.3965 17.7462V24.0462ZM24.3965 19.5262C23.8696 19.5259 23.3518 19.6643 22.8954 19.9277C22.439 20.191 22.06 20.5699 21.7965 21.0262C21.6769 21.2548 21.6503 21.5206 21.7222 21.7684C21.794 22.0161 21.9588 22.2264 22.1821 22.3555C22.4054 22.4846 22.67 22.5224 22.9205 22.461C23.171 22.3997 23.3881 22.2439 23.5265 22.0262C23.6142 21.8743 23.7403 21.7482 23.8921 21.6604C24.0439 21.5727 24.2162 21.5264 24.3915 21.5262C24.5669 21.526 24.7392 21.572 24.8912 21.6595C25.0432 21.7469 25.1696 21.8728 25.2575 22.0245C25.3455 22.1762 25.3921 22.3484 25.3925 22.5237C25.3929 22.6991 25.3473 22.8715 25.26 23.0236C25.1728 23.1758 25.0471 23.3023 24.8955 23.3905C24.744 23.4787 24.5719 23.5255 24.3965 23.5262C24.1313 23.5262 23.8769 23.6316 23.6894 23.8191C23.5018 24.0066 23.3965 24.261 23.3965 24.5262C23.3965 24.7914 23.5018 25.0458 23.6894 25.2333C23.8769 25.4209 24.1313 25.5262 24.3965 25.5262C25.1921 25.5262 25.9552 25.2101 26.5178 24.6475C27.0804 24.0849 27.3965 23.3219 27.3965 22.5262C27.3965 21.7306 27.0804 20.9675 26.5178 20.4049C25.9552 19.8423 25.1921 19.5262 24.3965 19.5262Z"
    fill="#F7F8F9" />
</svg>