<svg width="25" height="25" viewBox="0 0 25 25" fill="none" xmlns="http://www.w3.org/2000/svg">
<path d="M22.4795 3.39258H16.4795C15.4186 3.39258 14.4012 3.81401 13.6511 4.56415C12.9009 5.3143 12.4795 6.33171 12.4795 7.39258V21.3926C12.4795 20.5969 12.7956 19.8339 13.3582 19.2713C13.9208 18.7086 14.6838 18.3926 15.4795 18.3926H22.4795V3.39258Z" stroke="#4B6BA4" stroke-width="2" stroke-linecap="round" stroke-linejoin="round"/>
<path d="M2.47949 3.39258H8.47949C9.54036 3.39258 10.5578 3.81401 11.3079 4.56415C12.0581 5.3143 12.4795 6.33171 12.4795 7.39258V21.3926C12.4795 20.5969 12.1634 19.8339 11.6008 19.2713C11.0382 18.7086 10.2751 18.3926 9.47949 18.3926H2.47949V3.39258Z" stroke="#4B6BA4" stroke-width="2" stroke-linecap="round" stroke-linejoin="round"/>
</svg>
