<svg width="21" height="21" viewBox="0 0 21 21" fill="none" xmlns="http://www.w3.org/2000/svg">
  <path
    d="M15.2485 14.1828L14.2593 15.1612C13.5304 15.8762 12.5843 16.7962 11.421 17.9212C11.0713 18.2592 10.604 18.4482 10.1177 18.4482C9.63129 18.4482 9.16396 18.2592 8.81432 17.9212L5.90515 15.0912C5.53904 14.7323 5.23293 14.4295 4.98682 14.1828C3.97213 13.1681 3.28113 11.8752 3.0012 10.4677C2.72127 9.06023 2.86499 7.60135 3.41419 6.27555C3.96338 4.94975 4.89338 3.81657 6.08658 3.01932C7.27979 2.22206 8.68261 1.79652 10.1177 1.79652C11.5527 1.79652 12.9555 2.22206 14.1487 3.01932C15.3419 3.81657 16.2719 4.94975 16.8211 6.27555C17.3703 7.60135 17.514 9.06023 17.2341 10.4677C16.9542 11.8752 16.2632 13.1681 15.2485 14.1828ZM12.201 9.28116C12.201 8.72862 11.9815 8.19872 11.5908 7.80802C11.2001 7.41732 10.6702 7.19782 10.1177 7.19782C9.56512 7.19782 9.03521 7.41732 8.64451 7.80802C8.25381 8.19872 8.03432 8.72862 8.03432 9.28116C8.03432 9.83369 8.25381 10.3636 8.64451 10.7543C9.03521 11.145 9.56512 11.3645 10.1177 11.3645C10.6702 11.3645 11.2001 11.145 11.5908 10.7543C11.9815 10.3636 12.201 9.83369 12.201 9.28116Z"
    fill="#808080" fill-opacity="0.55" />
</svg>