<svg width="37" height="19" viewBox="0 0 37 19" fill="none" xmlns="http://www.w3.org/2000/svg">
  <path opacity="0.5"
    d="M20.8797 11.7949C19.7919 11.7951 18.7285 11.4727 17.824 10.8685C16.9194 10.2642 16.2143 9.40537 15.7979 8.40044C15.3815 7.3955 15.2724 6.28966 15.4844 5.22273C15.6965 4.1558 16.2202 3.17572 16.9892 2.40641C17.7583 1.63711 18.7382 1.11314 19.8051 0.900765C20.872 0.688388 21.9779 0.797141 22.9829 1.21327C23.988 1.62941 24.8471 2.33423 25.4515 3.23861C26.056 4.14299 26.3787 5.20631 26.3789 6.29411V6.29492C26.3774 7.75301 25.7976 9.15095 24.7666 10.182C23.7357 11.2131 22.3378 11.7932 20.8797 11.7949Z"
    fill="#FFAA00" />
  <path
    d="M15.3789 11.7949C14.2911 11.7949 13.2277 11.4724 12.3233 10.868C11.4188 10.2637 10.7139 9.40467 10.2976 8.39968C9.88129 7.39469 9.77237 6.28882 9.98459 5.22193C10.1968 4.15503 10.7206 3.17503 11.4898 2.40584C12.259 1.63665 13.239 1.11282 14.3059 0.900605C15.3728 0.688387 16.4787 0.797305 17.4837 1.21359C18.4887 1.62987 19.3476 2.33482 19.952 3.23929C20.5563 4.14376 20.8789 5.20713 20.8789 6.29492C20.8774 7.75315 20.2974 9.15121 19.2663 10.1823C18.2352 11.2135 16.8371 11.7934 15.3789 11.7949Z"
    fill="#FF8753" />
  <path
    d="M0.528409 14.1586H1.19425L2.35192 16.9853H2.39453L3.5522 14.1586H4.21804V17.7949H3.69602V15.1635H3.66229L2.58984 17.7896H2.15661L1.08416 15.1618H1.05043V17.7949H0.528409V14.1586ZM5.32289 17.7949H4.7405L6.04909 14.1586H6.68297L7.99157 17.7949H7.40918L6.38113 14.8191H6.35272L5.32289 17.7949ZM5.42054 16.3709H7.30975V16.8326H5.42054V16.3709ZM10.4707 15.1138C10.4518 14.9457 10.3736 14.8155 10.2363 14.7232C10.099 14.6297 9.9262 14.5829 9.71786 14.5829C9.56871 14.5829 9.43969 14.6066 9.33079 14.6539C9.22189 14.7001 9.13725 14.764 9.07688 14.8457C9.0177 14.9262 8.9881 15.0179 8.9881 15.1209C8.9881 15.2073 9.00823 15.2819 9.04847 15.3446C9.0899 15.4074 9.14376 15.46 9.21005 15.5027C9.27752 15.5441 9.34973 15.579 9.42667 15.6074C9.50361 15.6346 9.57759 15.6571 9.64862 15.6749L10.0037 15.7672C10.1197 15.7956 10.2387 15.8341 10.3606 15.8826C10.4825 15.9312 10.5956 15.9951 10.6998 16.0744C10.8039 16.1537 10.888 16.252 10.9519 16.3691C11.017 16.4863 11.0495 16.6266 11.0495 16.79C11.0495 16.9959 10.9963 17.1788 10.8897 17.3386C10.7844 17.4984 10.6311 17.6245 10.4299 17.7168C10.2298 17.8091 9.98775 17.8553 9.70366 17.8553C9.4314 17.8553 9.19585 17.8121 8.99698 17.7257C8.79812 17.6393 8.64246 17.5167 8.53001 17.3581C8.41755 17.1983 8.35541 17.0089 8.34357 16.79H8.894C8.90465 16.9213 8.94727 17.0308 9.02184 17.1184C9.0976 17.2048 9.19407 17.2694 9.31126 17.312C9.42963 17.3534 9.55924 17.3741 9.70011 17.3741C9.85517 17.3741 9.99308 17.3498 10.1138 17.3013C10.2357 17.2516 10.3316 17.1829 10.4015 17.0953C10.4713 17.0066 10.5062 16.903 10.5062 16.7846C10.5062 16.6769 10.4754 16.5887 10.4139 16.5201C10.3535 16.4514 10.2712 16.3946 10.1671 16.3496C10.0641 16.3046 9.9475 16.265 9.81729 16.2306L9.38761 16.1135C9.09641 16.0342 8.86559 15.9176 8.69513 15.7637C8.52586 15.6098 8.44123 15.4062 8.44123 15.1529C8.44123 14.9434 8.49805 14.7605 8.61168 14.6042C8.72532 14.448 8.8792 14.3266 9.07333 14.2402C9.26746 14.1526 9.48645 14.1088 9.73029 14.1088C9.9765 14.1088 10.1937 14.152 10.3819 14.2385C10.5713 14.3249 10.7205 14.4438 10.8294 14.5953C10.9383 14.7457 10.9951 14.9185 10.9998 15.1138H10.4707ZM11.5258 14.6309V14.1586H14.3401V14.6309H13.2055V17.7949H12.6586V14.6309H11.5258ZM14.962 17.7949V14.1586H17.2418V14.6309H15.5107V15.7388H17.1229V16.2093H15.5107V17.3226H17.2631V17.7949H14.962ZM17.9747 17.7949V14.1586H19.2709C19.5526 14.1586 19.7864 14.2071 19.9722 14.3042C20.1592 14.4012 20.2989 14.5356 20.3912 14.7072C20.4836 14.8777 20.5297 15.0748 20.5297 15.2985C20.5297 15.521 20.483 15.7169 20.3895 15.8862C20.2971 16.0543 20.1575 16.1851 19.9704 16.2786C19.7846 16.3721 19.5508 16.4189 19.2691 16.4189H18.2872V15.9466H19.2194C19.3969 15.9466 19.5413 15.9211 19.6526 15.8702C19.7651 15.8193 19.8473 15.7453 19.8994 15.6483C19.9515 15.5512 19.9775 15.4346 19.9775 15.2985C19.9775 15.1612 19.9509 15.0422 19.8976 14.9416C19.8456 14.841 19.7633 14.764 19.6508 14.7108C19.5396 14.6563 19.3934 14.6291 19.2123 14.6291H18.5233V17.7949H17.9747ZM19.7698 16.1543L20.6682 17.7949H20.0432L19.1626 16.1543H19.7698ZM25.5408 15.3411H24.9869C24.9656 15.2227 24.9259 15.1185 24.8679 15.0286C24.8099 14.9386 24.7389 14.8623 24.6548 14.7995C24.5708 14.7368 24.4767 14.6895 24.3725 14.6575C24.2695 14.6255 24.16 14.6096 24.044 14.6096C23.8345 14.6096 23.6469 14.6622 23.4812 14.7676C23.3166 14.8729 23.1864 15.0274 23.0906 15.231C22.9959 15.4346 22.9485 15.6832 22.9485 15.9767C22.9485 16.2727 22.9959 16.5224 23.0906 16.726C23.1864 16.9296 23.3172 17.0835 23.483 17.1877C23.6487 17.2918 23.8351 17.3439 24.0423 17.3439C24.1571 17.3439 24.266 17.3285 24.369 17.2978C24.4731 17.2658 24.5672 17.219 24.6513 17.1575C24.7353 17.0959 24.8063 17.0208 24.8643 16.932C24.9235 16.842 24.9644 16.7391 24.9869 16.623L25.5408 16.6248C25.5112 16.8036 25.4538 16.9681 25.3686 17.1184C25.2846 17.2676 25.1763 17.3966 25.0437 17.5055C24.9123 17.6132 24.762 17.6967 24.5927 17.7559C24.4234 17.815 24.2388 17.8446 24.0387 17.8446C23.7238 17.8446 23.4433 17.7701 23.1971 17.6209C22.9509 17.4706 22.7567 17.2557 22.6147 16.9764C22.4738 16.697 22.4034 16.3638 22.4034 15.9767C22.4034 15.5885 22.4744 15.2553 22.6165 14.9771C22.7585 14.6977 22.9527 14.4835 23.1989 14.3343C23.4451 14.184 23.725 14.1088 24.0387 14.1088C24.2317 14.1088 24.4116 14.1367 24.5785 14.1923C24.7466 14.2467 24.8975 14.3272 25.0312 14.4338C25.165 14.5391 25.2757 14.6681 25.3633 14.8208C25.4509 14.9724 25.5101 15.1458 25.5408 15.3411ZM26.4801 17.7949H25.8977L27.2063 14.1586H27.8402L29.1488 17.7949H28.5664L27.5384 14.8191H27.5099L26.4801 17.7949ZM26.5778 16.3709H28.467V16.8326H26.5778V16.3709ZM29.6739 17.7949V14.1586H30.9701C31.2518 14.1586 31.4856 14.2071 31.6714 14.3042C31.8585 14.4012 31.9981 14.5356 32.0905 14.7072C32.1828 14.8777 32.229 15.0748 32.229 15.2985C32.229 15.521 32.1822 15.7169 32.0887 15.8862C31.9964 16.0543 31.8567 16.1851 31.6697 16.2786C31.4838 16.3721 31.25 16.4189 30.9683 16.4189H29.9864V15.9466H30.9186C31.0961 15.9466 31.2406 15.9211 31.3518 15.8702C31.4643 15.8193 31.5465 15.7453 31.5986 15.6483C31.6507 15.5512 31.6768 15.4346 31.6768 15.2985C31.6768 15.1612 31.6501 15.0422 31.5969 14.9416C31.5448 14.841 31.4625 14.764 31.3501 14.7108C31.2388 14.6563 31.0926 14.6291 30.9115 14.6291H30.2226V17.7949H29.6739ZM31.469 16.1543L32.3675 17.7949H31.7425L30.8618 16.1543H31.469ZM34.0738 17.7949H32.8966V14.1586H34.1111C34.4674 14.1586 34.7733 14.2314 35.029 14.377C35.2847 14.5214 35.4806 14.7291 35.6167 15.0002C35.7541 15.2701 35.8227 15.5938 35.8227 15.9714C35.8227 16.3502 35.7535 16.6757 35.615 16.948C35.4777 17.2202 35.2788 17.4297 35.0184 17.5765C34.758 17.7221 34.4431 17.7949 34.0738 17.7949ZM33.4452 17.3155H34.0436C34.3206 17.3155 34.5508 17.2634 34.7343 17.1593C34.9178 17.0539 35.0551 16.9018 35.1462 16.7029C35.2374 16.5029 35.2829 16.2591 35.2829 15.9714C35.2829 15.6861 35.2374 15.4441 35.1462 15.2452C35.0563 15.0463 34.9219 14.8954 34.7432 14.7924C34.5644 14.6895 34.3425 14.638 34.0773 14.638H33.4452V17.3155Z"
    fill="black" />
</svg>