<svg width="62" height="16" viewBox="0 0 62 16" fill="none" xmlns="http://www.w3.org/2000/svg">
  <g clip-path="url(#clip0_245_19541)">
    <path
      d="M8.61457 1.44906C8.07028 0.660217 7.08637 0.322021 5.82766 0.322021H2.17453C2.05 0.322027 1.92954 0.378522 1.83484 0.481348C1.74013 0.584174 1.67737 0.726587 1.65785 0.882982L0.13676 13.1496C0.106525 13.3914 0.25383 13.6105 0.446643 13.6105H2.70196L3.26836 9.04239L3.25078 9.18543C3.29113 8.86254 3.50832 8.62437 3.76551 8.62437H4.83723C6.94262 8.62437 8.59117 7.53702 9.07274 4.39154C9.08703 4.29851 9.09942 4.20797 9.11012 4.11951C9.04934 4.07858 9.04934 4.07858 9.11012 4.11951C9.25352 2.95691 9.10914 2.16553 8.61457 1.44906Z"
      fill="#27346A" />
    <path
      d="M4.13133 3.7007C4.19299 3.66337 4.26042 3.64402 4.32871 3.64407H7.1927C7.53184 3.64407 7.84817 3.67214 8.13723 3.73129C8.21812 3.74769 8.29858 3.76727 8.37852 3.79C8.49181 3.82179 8.6038 3.86069 8.71406 3.90657C8.85617 3.96692 8.98852 4.0372 9.11016 4.1195C9.25352 2.95646 9.10914 2.16553 8.61457 1.44906C8.06996 0.660217 7.08637 0.322021 5.82766 0.322021H2.17422C1.91699 0.322021 1.69817 0.560134 1.65785 0.882982L0.13676 13.1491C0.106526 13.3914 0.25383 13.6101 0.44633 13.6101H2.70196L3.87707 4.1348C3.88863 4.04167 3.9178 3.9535 3.9621 3.87788C4.00639 3.80226 4.06446 3.74145 4.13133 3.7007Z"
      fill="#27346A" />
    <path
      d="M9.07296 4.39167C8.5914 7.5367 6.94288 8.6245 4.83745 8.6245H3.76542C3.50823 8.6245 3.291 8.86266 3.25104 9.18556L2.5464 14.8654C2.52007 15.0771 2.64882 15.2689 2.81725 15.2689H4.71843C4.82733 15.2689 4.93265 15.2195 5.01545 15.1295C5.09825 15.0396 5.15309 14.915 5.17011 14.7782L5.18862 14.655L5.54694 11.7675L5.57003 11.6079C5.58705 11.4711 5.64188 11.3466 5.72467 11.2566C5.80746 11.1667 5.91277 11.1172 6.02167 11.1172H6.3062C8.14788 11.1172 9.58995 10.1658 10.0114 7.41436C10.1873 6.26453 10.0962 5.30453 9.63093 4.63022C9.48979 4.42599 9.31452 4.25731 9.11034 4.11963C9.09929 4.20854 9.08729 4.29864 9.07296 4.39167Z"
      fill="#2790C3" />
    <path
      d="M8.60504 3.86403C8.52995 3.83615 8.45416 3.81147 8.37777 3.79002C8.2978 3.76766 8.21734 3.74822 8.13648 3.73171C7.84711 3.67216 7.53102 3.64404 7.19156 3.64404H4.32793C4.25959 3.64385 4.1921 3.66336 4.13055 3.70111C4.06361 3.74175 4.00546 3.80251 3.96115 3.87816C3.91684 3.9538 3.8877 4.04203 3.87625 4.13522L3.26758 9.04241L3.25 9.18545C3.29004 8.86256 3.50723 8.62439 3.76445 8.62439H4.83648C6.94187 8.62439 8.59039 7.53704 9.07195 4.39156C9.08629 4.29853 9.09832 4.20838 9.10938 4.11952C8.98742 4.03767 8.85543 3.96694 8.71328 3.90699C8.67741 3.89187 8.64134 3.87755 8.60508 3.86403"
      fill="#1F264F" />
  </g>
  <path
    d="M22.5266 12.2954L23.9755 3.56814H27.0863C27.7624 3.56814 28.3022 3.69172 28.7056 3.93888C29.1119 4.18603 29.3903 4.52268 29.5408 4.94882C29.6942 5.37496 29.7269 5.85649 29.6388 6.39342C29.5479 6.93035 29.3548 7.41331 29.0593 7.84229C28.7667 8.26842 28.3761 8.60649 27.8874 8.85649C27.3988 9.10365 26.8178 9.22723 26.1445 9.22723H24.0011L24.1843 8.11075H26.2042C26.6332 8.11075 26.994 8.03689 27.2866 7.88916C27.582 7.73859 27.8136 7.53405 27.9812 7.27552C28.1488 7.01416 28.2582 6.72013 28.3093 6.39342C28.3633 6.06104 28.3491 5.76842 28.2667 5.51558C28.1843 5.2599 28.021 5.05961 27.7766 4.91473C27.5352 4.76984 27.1971 4.6974 26.7624 4.6974H25.109L23.8434 12.2954H22.5266ZM31.9059 12.4403C31.4911 12.4403 31.1289 12.3636 30.8192 12.2102C30.5096 12.0539 30.2809 11.8281 30.1332 11.5326C29.9854 11.2372 29.9471 10.875 30.0181 10.446C30.0806 10.0767 30.2028 9.77268 30.3846 9.53405C30.5692 9.29541 30.7937 9.10649 31.0579 8.96729C31.3221 8.82524 31.609 8.71871 31.9187 8.64768C32.2283 8.57666 32.5408 8.5241 32.8562 8.49001C33.2539 8.44456 33.5763 8.40621 33.8235 8.37496C34.0735 8.34371 34.261 8.29541 34.386 8.23007C34.511 8.16189 34.5863 8.05109 34.6119 7.89768V7.86785C34.6715 7.49854 34.6175 7.2116 34.4499 7.00706C34.2852 6.79967 33.9982 6.69598 33.5891 6.69598C33.163 6.69598 32.805 6.78973 32.5153 6.97723C32.2283 7.16473 32.0167 7.37496 31.8803 7.60791L30.7383 7.33518C30.9428 6.93746 31.2028 6.61643 31.5181 6.37211C31.8363 6.12496 32.1843 5.94598 32.5621 5.83518C32.94 5.72155 33.3263 5.66473 33.7212 5.66473C33.9826 5.66473 34.2539 5.69598 34.5352 5.75848C34.8164 5.81814 35.0721 5.92893 35.3022 6.09086C35.5352 6.2528 35.7085 6.48433 35.8221 6.78547C35.9357 7.08376 35.9528 7.47155 35.8732 7.94882L35.1531 12.2954H33.9087L34.0621 11.4005H34.011C33.9031 11.5653 33.7525 11.7272 33.5593 11.8863C33.369 12.0454 33.136 12.1775 32.8604 12.2826C32.5849 12.3877 32.2667 12.4403 31.9059 12.4403ZM32.3406 11.4176C32.6957 11.4176 33.0096 11.348 33.2823 11.2088C33.5579 11.0696 33.7809 10.8877 33.9513 10.6633C34.1218 10.436 34.2283 10.1931 34.271 9.93461L34.4116 9.09086C34.3576 9.13632 34.2624 9.17751 34.1261 9.21444C33.9925 9.25138 33.842 9.28405 33.6744 9.31246C33.5067 9.34086 33.342 9.36501 33.18 9.3849C33.021 9.40479 32.8888 9.42325 32.7837 9.4403C32.5337 9.47155 32.2994 9.5241 32.0806 9.59797C31.8647 9.67183 31.6843 9.77836 31.5394 9.91757C31.3945 10.0539 31.3036 10.2358 31.2667 10.463C31.2156 10.7784 31.2908 11.017 31.4925 11.1789C31.6971 11.338 31.9798 11.4176 32.3406 11.4176ZM37.0206 14.75C36.8274 14.75 36.6555 14.7343 36.505 14.7031C36.3544 14.6747 36.2422 14.6434 36.1683 14.6093L36.6541 13.5653C36.8786 13.6278 37.0788 13.6519 37.255 13.6377C37.4339 13.6235 37.6016 13.5497 37.7578 13.4161C37.9141 13.2826 38.0732 13.0724 38.2351 12.7855L38.4737 12.3551L37.1911 5.74996H38.5036L39.3132 10.8423H39.3814L41.8871 5.74996H43.3061L39.3814 13.1605C39.1967 13.5127 38.9865 13.8054 38.7507 14.0383C38.5178 14.2741 38.2564 14.4517 37.9666 14.571C37.6797 14.6903 37.3643 14.75 37.0206 14.75Z"
    fill="#27346A" />
  <path
    d="M43.5149 12.2954L44.9638 3.56814H48.0746C48.7507 3.56814 49.2905 3.69172 49.6939 3.93888C50.1001 4.18603 50.3786 4.52268 50.5291 4.94882C50.6825 5.37496 50.7152 5.85649 50.6271 6.39342C50.5362 6.93035 50.343 7.41331 50.0476 7.84229C49.755 8.26842 49.3643 8.60649 48.8757 8.85649C48.3871 9.10365 47.8061 9.22723 47.1328 9.22723H44.9893L45.1726 8.11075H47.1925C47.6214 8.11075 47.9822 8.03689 48.2749 7.88916C48.5703 7.73859 48.8018 7.53405 48.9695 7.27552C49.1371 7.01416 49.2464 6.72013 49.2976 6.39342C49.3516 6.06104 49.3374 5.76842 49.255 5.51558C49.1726 5.2599 49.0092 5.05961 48.7649 4.91473C48.5234 4.76984 48.1854 4.6974 47.7507 4.6974H46.0973L44.8317 12.2954H43.5149ZM52.8942 12.4403C52.4794 12.4403 52.1172 12.3636 51.8075 12.2102C51.4979 12.0539 51.2692 11.8281 51.1214 11.5326C50.9737 11.2372 50.9354 10.875 51.0064 10.446C51.0689 10.0767 51.1911 9.77268 51.3729 9.53405C51.5575 9.29541 51.782 9.10649 52.0462 8.96729C52.3104 8.82524 52.5973 8.71871 52.907 8.64768C53.2166 8.57666 53.5291 8.5241 53.8445 8.49001C54.2422 8.44456 54.5646 8.40621 54.8118 8.37496C55.0618 8.34371 55.2493 8.29541 55.3743 8.23007C55.4993 8.16189 55.5746 8.05109 55.6001 7.89768V7.86785C55.6598 7.49854 55.6058 7.2116 55.4382 7.00706C55.2734 6.79967 54.9865 6.69598 54.5774 6.69598C54.1513 6.69598 53.7933 6.78973 53.5036 6.97723C53.2166 7.16473 53.005 7.37496 52.8686 7.60791L51.7266 7.33518C51.9311 6.93746 52.1911 6.61643 52.5064 6.37211C52.8246 6.12496 53.1726 5.94598 53.5504 5.83518C53.9283 5.72155 54.3146 5.66473 54.7095 5.66473C54.9709 5.66473 55.2422 5.69598 55.5234 5.75848C55.8047 5.81814 56.0604 5.92893 56.2905 6.09086C56.5234 6.2528 56.6967 6.48433 56.8104 6.78547C56.924 7.08376 56.9411 7.47155 56.8615 7.94882L56.1413 12.2954H54.897L55.0504 11.4005H54.9993C54.8913 11.5653 54.7408 11.7272 54.5476 11.8863C54.3572 12.0454 54.1243 12.1775 53.8487 12.2826C53.5732 12.3877 53.255 12.4403 52.8942 12.4403ZM53.3288 11.4176C53.6839 11.4176 53.9979 11.348 54.2706 11.2088C54.5462 11.0696 54.7692 10.8877 54.9396 10.6633C55.1101 10.436 55.2166 10.1931 55.2592 9.93461L55.3999 9.09086C55.3459 9.13632 55.2507 9.17751 55.1143 9.21444C54.9808 9.25138 54.8303 9.28405 54.6626 9.31246C54.495 9.34086 54.3303 9.36501 54.1683 9.3849C54.0092 9.40479 53.8771 9.42325 53.772 9.4403C53.522 9.47155 53.2876 9.5241 53.0689 9.59797C52.853 9.67183 52.6726 9.77836 52.5277 9.91757C52.3828 10.0539 52.2919 10.2358 52.255 10.463C52.2038 10.7784 52.2791 11.017 52.4808 11.1789C52.6854 11.338 52.968 11.4176 53.3288 11.4176ZM60.5614 3.56814L59.1126 12.2954H57.8384L59.2873 3.56814H60.5614Z"
    fill="#2790C3" />
  <defs>
    <clipPath id="clip0_245_19541">
      <rect width="10" height="15" fill="white" transform="translate(0.113281 0.29541)" />
    </clipPath>
  </defs>
</svg>