<svg width="49" height="49" viewBox="0 0 49 49" fill="none" xmlns="http://www.w3.org/2000/svg">
  <circle cx="24.5293" cy="24.9871" r="24" fill="#4B6BA4" />
  <path
    d="M31.939 25.9871C31.719 25.9871 31.489 25.9171 31.269 25.8671C30.8238 25.7675 30.3861 25.6372 29.959 25.4771C29.4951 25.3083 28.9851 25.3171 28.5273 25.5017C28.0695 25.6863 27.6961 26.0337 27.479 26.4771L27.259 26.9371C26.2878 26.3863 25.3906 25.7142 24.589 24.9371C23.8118 24.1354 23.1398 23.2382 22.589 22.2671L23.049 22.0571C23.4923 21.84 23.8398 21.4666 24.0244 21.0088C24.209 20.5509 24.2178 20.041 24.049 19.5771C23.8902 19.1461 23.7599 18.7051 23.659 18.2571C23.609 18.0371 23.569 17.8071 23.539 17.5871C23.4175 16.8827 23.0486 16.2448 22.4986 15.7883C21.9486 15.3318 21.2537 15.0867 20.539 15.0971H17.529C17.1062 15.0965 16.6881 15.1853 16.3021 15.3576C15.9161 15.53 15.5708 15.782 15.289 16.0971C15.0013 16.4207 14.7871 16.8028 14.6611 17.2171C14.5351 17.6314 14.5002 18.068 14.559 18.4971C15.1026 22.6592 17.0042 26.5257 19.969 29.4971C22.9403 32.4619 26.8068 34.3635 30.969 34.9071C31.0988 34.917 31.2292 34.917 31.359 34.9071C32.0964 34.9081 32.8084 34.6376 33.359 34.1471C33.6741 33.8652 33.9261 33.52 34.0984 33.1339C34.2707 32.7479 34.3595 32.3298 34.359 31.9071V28.9071C34.3536 28.2161 34.1098 27.5482 33.6689 27.0162C33.228 26.4841 32.6169 26.1206 31.939 25.9871ZM32.429 31.9871C32.4286 32.1266 32.3991 32.2645 32.3423 32.392C32.2855 32.5194 32.2026 32.6336 32.099 32.7271C31.9894 32.8269 31.8589 32.9011 31.7171 32.9444C31.5753 32.9876 31.4256 32.9988 31.279 32.9771C27.5473 32.4897 24.0792 30.7891 21.409 28.1371C18.7365 25.4645 17.021 21.9844 16.529 18.2371C16.5073 18.0904 16.5184 17.9407 16.5617 17.7989C16.6049 17.6571 16.6791 17.5267 16.779 17.4171C16.8736 17.3122 16.9894 17.2286 17.1186 17.1717C17.2479 17.1148 17.3878 17.086 17.529 17.0871H20.529C20.7601 17.0814 20.9861 17.156 21.1684 17.2983C21.3508 17.4405 21.4782 17.6415 21.529 17.8671C21.529 18.1371 21.619 18.4171 21.679 18.6871C21.7946 19.2109 21.9483 19.7256 22.139 20.2271L20.739 20.8871C20.4983 20.9975 20.3113 21.1989 20.219 21.4471C20.119 21.6905 20.119 21.9636 20.219 22.2071C21.6582 25.2898 24.1362 27.7679 27.219 29.2071C27.4624 29.3071 27.7355 29.3071 27.979 29.2071C28.2271 29.1147 28.4285 28.9277 28.539 28.6871L29.169 27.2871C29.6849 27.4752 30.2127 27.6289 30.749 27.7471C31.009 27.8071 31.289 27.8571 31.559 27.8971C31.7846 27.9479 31.9856 28.0753 32.1278 28.2576C32.27 28.4399 32.3446 28.6659 32.339 28.8971L32.429 31.9871ZM26.529 14.9871C26.299 14.9871 26.059 14.9871 25.829 14.9871C25.5638 15.0096 25.3184 15.1366 25.1468 15.3401C24.9752 15.5435 24.8914 15.8068 24.914 16.0721C24.9365 16.3373 25.0635 16.5827 25.267 16.7543C25.4705 16.9259 25.7338 17.0096 25.999 16.9871H26.529C28.1203 16.9871 29.6464 17.6192 30.7716 18.7444C31.8968 19.8696 32.529 21.3958 32.529 22.9871C32.529 23.1671 32.529 23.3371 32.529 23.5171C32.5068 23.7809 32.5902 24.0427 32.7607 24.2452C32.9313 24.4476 33.1752 24.5742 33.439 24.5971H33.519C33.7693 24.5981 34.0109 24.5052 34.1961 24.3367C34.3812 24.1682 34.4965 23.9364 34.519 23.6871C34.519 23.4571 34.519 23.2171 34.519 22.9871C34.519 20.8671 33.6775 18.8337 32.1794 17.3337C30.6812 15.8337 28.649 14.9897 26.529 14.9871ZM28.529 22.9871C28.529 23.2523 28.6343 23.5066 28.8219 23.6942C29.0094 23.8817 29.2638 23.9871 29.529 23.9871C29.7942 23.9871 30.0486 23.8817 30.2361 23.6942C30.4236 23.5066 30.529 23.2523 30.529 22.9871C30.529 21.9262 30.1076 20.9088 29.3574 20.1586C28.6073 19.4085 27.5898 18.9871 26.529 18.9871C26.2638 18.9871 26.0094 19.0924 25.8219 19.28C25.6343 19.4675 25.529 19.7218 25.529 19.9871C25.529 20.2523 25.6343 20.5066 25.8219 20.6942C26.0094 20.8817 26.2638 20.9871 26.529 20.9871C27.0594 20.9871 27.5681 21.1978 27.9432 21.5728C28.3183 21.9479 28.529 22.4566 28.529 22.9871Z"
    fill="#F0FDF4" />
</svg>