<svg width="25" height="25" viewBox="0 0 25 25" fill="none" xmlns="http://www.w3.org/2000/svg">
<g clip-path="url(#clip0_286_4212)">
<path d="M16.4796 21.3926V19.3926C16.4796 18.3317 16.0581 17.3143 15.308 16.5642C14.5578 15.814 13.5404 15.3926 12.4796 15.3926H5.47955C4.41869 15.3926 3.40127 15.814 2.65113 16.5642C1.90098 17.3143 1.47955 18.3317 1.47955 19.3926V21.3926M17.4796 11.3926L19.4796 13.3926L23.4796 9.39258M12.9796 7.39258C12.9796 9.60172 11.1887 11.3926 8.97955 11.3926C6.77041 11.3926 4.97955 9.60172 4.97955 7.39258C4.97955 5.18344 6.77041 3.39258 8.97955 3.39258C11.1887 3.39258 12.9796 5.18344 12.9796 7.39258Z" stroke="#4B6BA4" stroke-width="2" stroke-linecap="round" stroke-linejoin="round"/>
</g>
<defs>
<clipPath id="clip0_286_4212">
<rect width="24" height="24" fill="white" transform="translate(0.479553 0.392578)"/>
</clipPath>
</defs>
</svg>
