<svg width="25" height="25" viewBox="0 0 25 25" fill="none" xmlns="http://www.w3.org/2000/svg">
<g clip-path="url(#clip0_286_4259)">
<path d="M21.4795 18.3926H23.4795M17.4795 18.3926C17.4795 17.0665 16.9527 15.7947 16.015 14.857C15.0773 13.9194 13.8056 13.3926 12.4795 13.3926C11.1534 13.3926 9.88164 13.9194 8.94396 14.857C8.00628 15.7947 7.47949 17.0665 7.47949 18.3926M12.4795 2.39258V9.39258M12.4795 2.39258L8.47949 6.39258M12.4795 2.39258L16.4795 6.39258M4.69949 10.6126L6.11949 12.0326M1.47949 18.3926H3.47949M18.8395 12.0326L20.2595 10.6126M23.4795 22.3926H1.47949" stroke="#4B6BA4" stroke-width="2" stroke-linecap="round" stroke-linejoin="round"/>
</g>
<defs>
<clipPath id="clip0_286_4259">
<rect width="24" height="24" fill="white" transform="translate(0.479492 0.392578)"/>
</clipPath>
</defs>
</svg>
