<svg width="49" height="49" viewBox="0 0 49 49" fill="none" xmlns="http://www.w3.org/2000/svg">
  <circle cx="24.1289" cy="24.5281" r="24" fill="#4B6BA4" />
  <path
    d="M30.1298 17.0081C28.5385 15.4168 26.3802 14.5228 24.1298 14.5228C21.8794 14.5228 19.7211 15.4168 18.1298 17.0081C16.5385 18.5994 15.6445 20.7577 15.6445 23.0081C15.6445 25.2585 16.5385 27.4168 18.1298 29.0081L23.3998 34.2881C23.4928 34.3818 23.6034 34.4562 23.7252 34.507C23.8471 34.5578 23.9778 34.5839 24.1098 34.5839C24.2418 34.5839 24.3725 34.5578 24.4944 34.507C24.6162 34.4562 24.7268 34.3818 24.8198 34.2881L30.1298 28.9581C31.7145 27.3734 32.6047 25.2242 32.6047 22.9831C32.6047 20.7421 31.7145 18.5928 30.1298 17.0081ZM28.6998 27.5281L24.1298 32.1181L19.5598 27.5281C18.657 26.6244 18.0423 25.4734 17.7935 24.2204C17.5447 22.9674 17.673 21.6689 18.1621 20.4888C18.6512 19.3087 19.4792 18.3002 20.5414 17.5906C21.6037 16.881 22.8524 16.5023 24.1298 16.5023C25.4072 16.5023 26.656 16.881 27.7182 17.5906C28.7804 18.3002 29.6084 19.3087 30.0975 20.4888C30.5866 21.6689 30.7149 22.9674 30.4661 24.2204C30.2173 25.4734 29.6027 26.6244 28.6998 27.5281ZM21.1298 19.9381C20.3225 20.7479 19.8692 21.8447 19.8692 22.9881C19.8692 24.1315 20.3225 25.2283 21.1298 26.0381C21.7296 26.6389 22.4934 27.0492 23.3255 27.2175C24.1575 27.3858 25.0208 27.3047 25.8069 26.9843C26.593 26.6638 27.267 26.1184 27.7443 25.4164C28.2216 24.7143 28.4809 23.887 28.4898 23.0381C28.4943 22.4713 28.3851 21.9094 28.1687 21.3855C27.9523 20.8616 27.633 20.3865 27.2298 19.9881C26.8335 19.5827 26.3609 19.2596 25.8392 19.0376C25.3176 18.8155 24.7572 18.6988 24.1902 18.6941C23.6233 18.6895 23.061 18.797 22.5358 19.0105C22.0106 19.224 21.5327 19.5392 21.1298 19.9381ZM25.8198 24.6181C25.4409 25.0029 24.94 25.244 24.4029 25.3004C23.8659 25.3567 23.3259 25.2247 22.8753 24.927C22.4248 24.6293 22.0916 24.1844 21.9328 23.6682C21.774 23.152 21.7995 22.5967 22.0048 22.0973C22.2101 21.5978 22.5825 21.1851 23.0584 20.9298C23.5343 20.6746 24.0841 20.5925 24.6137 20.6977C25.1434 20.8029 25.6201 21.0889 25.9623 21.5066C26.3045 21.9244 26.491 22.4481 26.4898 22.9881C26.4753 23.6054 26.2163 24.1916 25.7698 24.6181H25.8198Z"
    fill="#F0FDF4" />
</svg>